<svg width="20" height="26" viewBox="0 0 20 26" fill="none" xmlns="http://www.w3.org/2000/svg">
<path d="M0 21.75V19.25H2.5V10.5C2.5 8.77083 3.02083 7.23417 4.0625 5.89C5.10417 4.54667 6.45833 3.66667 8.125 3.25V2.375C8.125 1.85417 8.3075 1.41167 8.6725 1.0475C9.03667 0.6825 9.47917 0.5 10 0.5C10.5208 0.5 10.9633 0.6825 11.3275 1.0475C11.6925 1.41167 11.875 1.85417 11.875 2.375V3.25C13.5417 3.66667 14.8958 4.54667 15.9375 5.89C16.9792 7.23417 17.5 8.77083 17.5 10.5V19.25H20V21.75H0ZM10 25.5C9.3125 25.5 8.72417 25.2554 8.235 24.7662C7.745 24.2762 7.5 23.6875 7.5 23H12.5C12.5 23.6875 12.2554 24.2762 11.7662 24.7662C11.2762 25.2554 10.6875 25.5 10 25.5Z" fill="#3D3B3D"/>
</svg>
